<svg viewBox="0 0 150 71" fill="none" xmlns="http://www.w3.org/2000/svg">
  <path fill-rule="evenodd" clip-rule="evenodd" d="M103.073 36.1312C102.967 36.4659 103.122 36.79 103.073 37.0924C103.005 37.5063 102.698 37.7139 102.543 38.1082C101.639 38.4277 99.9424 38.4323 98.4491 38.5347C97.1841 38.619 95.8871 38.949 95.3667 37.9467C95.2937 37.8041 95.2732 37.7257 95.2623 37.573C95.2331 37.162 95.4306 36.738 95.4736 36.3459C96.2763 34.9406 98.1229 34.6252 100.149 34.3173C102.198 34.0057 103.277 33.0353 105.144 33.1418C105.358 33.3201 105.476 33.5935 105.678 33.7839C105.404 35.1209 103.454 34.9372 103.073 36.1312ZM91.4346 57.0534C91.301 58.8958 90.173 60.1791 89.4681 61.5911C89.1883 62.1531 89.0309 62.8149 88.6713 63.3509C88.3239 63.8692 87.8019 64.318 87.6085 64.8439C87.5329 65.0536 87.5434 65.4625 87.4502 65.7514C87.1028 66.81 85.9594 67.6739 84.7922 68.1C84.545 68.1901 84.2472 68.2342 83.9954 68.3147C83.6225 68.4334 83.6121 68.5856 83.3039 68.4732C83.0851 68.3915 82.8675 67.9779 82.8266 67.4608C82.7435 66.4208 83.1673 65.6688 83.4112 64.6308C83.6609 63.566 83.6797 62.5792 84.0476 61.8566C84.2376 61.4855 84.664 61.1873 84.9522 60.7893C86.5248 58.6072 88.0808 56.0821 90.2106 54.4356C90.5727 54.1597 91.0863 54.0523 91.4346 53.7432C91.7946 53.4274 91.9153 52.8709 92.4452 52.6763C92.7367 52.5681 93.0169 52.6939 93.242 52.623C93.4959 52.5434 93.6542 52.1986 93.9314 52.142C93.2641 53.7311 92.6026 55.7869 91.4346 57.0534ZM85.8533 37.412C84.2401 38.4441 83.9432 34.2595 85.8533 35.1188C86.0425 35.7466 86.4726 37.0203 85.8533 37.412ZM37.2302 35.7571C36.884 35.8422 36.5287 35.6346 36.4305 35.4379C36.0388 34.6252 37.3284 33.2047 38.0266 34.1559C37.8362 34.751 37.756 35.633 37.2302 35.7571ZM145.96 38.4797C145.783 38.5003 145.473 38.395 145.161 38.4277C144.889 38.455 144.282 38.7498 143.835 38.7993C143.385 38.8509 142.872 38.7486 142.292 38.7993C141.617 38.8593 140.865 39.0279 140.114 39.1214C139.307 39.2199 138.493 39.225 137.721 39.282C136.171 39.3932 134.714 39.6142 134.481 38.1602C134.403 37.6754 134.602 37.1809 134.533 36.8253C133.412 36.5791 133.23 38.0146 132.25 37.9467C131.967 37.9257 131.49 37.5009 131.453 37.1469C131.357 36.2759 132.344 35.1297 133.044 34.6365C133.953 34.002 135.05 33.6333 136.077 33.6224C136.524 34.548 135.385 34.9582 135.649 35.8636C136.602 35.7055 137.267 34.7661 137.828 33.9974C138.632 32.9002 139.699 32.0644 139.69 30.3131C138.892 29.4932 137.948 30.4456 137.139 30.8469C136.428 31.2022 135.761 31.5226 135.227 31.7574C134.945 31.8761 134.562 31.9222 134.268 32.0753C133.184 32.6381 132.333 33.5637 131.504 34.5312C130.84 35.3079 129.411 36.738 129.644 37.9467C129.753 38.5015 130.401 38.4965 130.496 39.0149C130.605 39.6184 130.223 40.1711 129.697 40.4018C128.836 40.7796 126.615 40.6966 126.03 40.5083C125.772 40.424 125.517 40.1124 125.234 39.9732C123.504 39.1403 120.403 39.0828 120.184 37.0392C120.055 35.7999 120.97 35.5264 120.929 34.0494C120.623 33.7218 120.082 33.4492 119.654 33.5172C119.19 33.588 119.018 34.1685 118.645 34.4239C118.396 34.5941 118.04 34.6516 117.795 34.8512C117.037 35.4623 116.61 36.4923 115.827 36.7183C115.3 38.3732 112.57 37.7588 111.151 37.3059C110.821 36.9423 110.387 36.6856 109.93 36.4508C109.501 36.8416 108.883 36.8768 108.281 37.0924C107.753 37.2807 107.179 37.6754 106.633 37.7316C106.349 37.7638 106.053 37.6468 105.784 37.68C105.246 37.7425 104.817 38.122 104.242 38.0532C105.252 37.2329 107.23 36.478 107.483 34.8512C107.738 33.2286 106.602 31.8627 105.411 31.648C102.635 31.5863 100.469 32.2351 98.183 33.2483C97.3307 33.6287 96.5749 34.0129 95.8466 34.4755C94.4225 35.3805 92.712 36.4562 92.7642 38.4797C92.4373 38.7033 91.7658 38.6831 91.4346 38.4797C91.04 39.0455 90.262 38.5208 89.5758 38.4797C89.2781 38.4621 88.9578 38.5586 88.6713 38.5347C88.3017 38.5015 88.0432 38.489 87.7676 38.3199C87.2865 37.443 88.0345 36.7431 88.1936 36.0251C88.6868 33.7872 87.0272 32.6763 85.4829 32.0212C84.9087 32.4234 84.2155 32.7078 83.6225 33.0894C83.4204 34.2939 82.3396 35.0408 82.295 36.2377C82.2557 37.3088 83.1201 37.8498 83.0387 39.0665C81.1303 39.8998 77.6825 39.9061 75.6513 39.1755C75.1978 38.4781 74.2749 38.5804 73.8439 37.7316C73.5416 37.1364 73.8084 35.2945 73.2601 35.0106C72.3798 34.556 71.2748 35.8913 70.8163 36.2897C70.0617 36.9477 69.1726 37.2044 68.3178 37.6263C67.6555 37.9526 66.5142 39.1373 65.7679 38.9067C64.7264 38.5858 65.9295 36.8114 65.7679 35.9714C65.5938 35.0626 63.7831 34.4306 62.5783 34.4755C62.0909 34.4956 61.5493 34.7292 61.0373 34.8512C60.4836 34.9821 59.919 35.076 59.389 35.17C57.2096 35.5608 55.682 36.7254 54.0216 37.573C53.1714 38.0088 52.3917 38.5833 51.5252 38.8534C51.6705 37.3797 52.6272 35.5935 52.3215 33.89C52.2898 33.7139 52.1161 33.562 52.0564 33.3565C51.9862 33.1217 52.0326 32.847 51.9503 32.6625C51.7536 32.2309 51.222 31.8912 50.8862 31.5947C50.4749 31.2319 50.1145 30.7907 49.5587 30.7404C48.3451 30.6322 47.6903 31.6085 47.0614 32.2351C47.4611 33.2622 46.6246 34.0649 45.9978 34.7992C45.4591 35.4258 44.8314 35.851 44.4034 36.2897C44.1478 36.5548 43.9699 36.9561 43.7653 37.0392C43.2157 37.2593 42.4073 37.191 41.7988 37.2509C41.1261 37.3218 40.4946 37.3847 39.7793 37.412C38.2429 34.8978 43.0712 34.5312 41.5871 31.861C40.911 31.7046 40.1973 31.5637 39.4615 31.5419C38.7691 31.5184 37.7731 31.4244 37.0164 31.5947C36.4961 31.7126 35.8025 32.3664 35.2625 32.7707C34.6553 33.2223 34.0694 33.6048 33.5629 34.0494C32.5026 34.9804 31.5813 36.2683 30.4805 36.8794C29.4624 37.4447 27.3239 37.667 25.7516 37.5214C24.8713 37.4367 24.5464 37.0178 23.9968 36.7183C23.6331 36.522 23.2222 36.4944 22.8276 36.1844C22.3039 36.4466 21.7685 36.1337 21.2845 36.1312C20.958 36.1299 20.6919 36.2708 20.3821 36.2377C19.9808 36.1949 19.6446 35.8615 19.214 35.7571C18.9581 35.6954 18.6766 35.7592 18.4703 35.7055C18.1571 35.6237 17.9157 35.2794 17.5674 35.17C17.2868 35.0857 16.964 35.1544 16.7159 35.0626C16.3881 34.9464 16.2069 34.642 15.8645 34.4239C15.6615 34.2926 15.3583 34.2737 15.1737 34.1559C14.914 33.9911 14.7591 33.6363 14.4839 33.5172C14.1109 33.3532 13.7242 33.4861 13.4215 33.4098C13.7242 33.0718 13.5927 32.6285 13.7405 32.1286C13.7969 31.939 13.9305 31.942 13.9535 31.7574C14.0161 31.2252 13.7276 30.6993 13.7405 30.2078C13.7656 29.1593 14.5482 28.6523 14.8029 27.754C14.3907 26.1482 15.8219 25.5157 15.9192 24.0705C16.3017 23.6117 16.7452 23.1483 16.9285 22.523C16.9987 22.2789 16.9573 22.0185 17.0342 21.7769C17.2425 21.1239 18.0297 20.6106 18.416 19.9602C18.8136 19.2925 18.8762 18.1904 19.3715 17.7727C19.5966 17.5835 19.9465 17.5953 20.1691 17.4518C20.9007 16.9817 20.9767 16.1287 21.3396 15.3721C21.9234 15.3344 21.9995 14.7883 22.5085 14.6759C22.5394 14.1911 22.9036 14.0427 22.9345 13.5562C24.493 12.2498 25.4718 10.4158 26.9201 9.12663C27.6855 8.4443 28.7563 8.04924 29.2031 7.09807C31.8402 5.97329 33.5194 3.6067 37.2837 3.79081C37.6449 5.89947 35.336 6.61033 34.5183 7.95194C34.3676 8.20063 34.3467 8.51475 34.1993 8.7538C33.4764 9.91843 32.2675 10.4867 31.3834 11.4215C31.375 11.9252 30.7783 12.1508 31.117 12.5421C31.9609 12.5299 32.1747 11.8606 32.9218 11.5779C34.0418 9.99853 35.397 9.26 36.5913 8.0052C37.2198 7.34677 37.4002 6.29831 37.9736 5.65749C38.2429 5.35469 38.6914 5.23391 39.0364 4.96383C40.1981 4.05251 42.0064 1.39739 40.3126 0C39.1349 0.00964583 38.4893 0.688209 37.5459 1.06817C35.9344 1.71528 34.1425 2.29361 33.083 3.41672C31.9284 3.5828 31.4757 4.15022 30.6388 4.74952C30.0792 5.15213 29.3918 5.32282 29.0444 5.60423C28.7091 5.87892 28.5475 6.36373 28.2472 6.67324C27.2855 7.65795 26.023 8.42668 25.0062 9.44662C23.9835 10.4754 22.9353 11.4341 22.2964 12.7556C21.2925 13.3108 20.7951 14.3031 20.0112 15.1574C19.7102 15.4858 19.3172 15.7055 19.1067 16.0121C18.804 16.4541 18.6582 17.0111 18.363 17.5068C17.5269 18.9037 16.2436 20.0826 15.441 21.4553C14.5139 23.0389 13.8353 24.6346 13.0494 26.2044C12.6214 27.0612 12.2225 27.8211 11.9331 28.659C11.5882 29.6618 11.6346 30.6096 11.5611 31.9143C11.5389 32.3005 11.3832 32.6968 11.402 33.0894C11.4358 33.7956 11.8521 34.4142 11.9331 35.17C12.5554 35.7273 13.5 36.3774 14.2713 36.7183C14.9386 37.0131 15.6874 37.087 16.3443 37.4665C16.6825 37.6632 16.9164 38.0738 17.3006 38.2667C18.0322 38.6324 18.9802 38.7175 19.7987 38.7477C20.717 38.7813 21.8725 38.4357 22.6685 38.5858C23.0163 38.6542 23.2865 38.9373 23.6239 39.0149C24.5117 39.217 25.3244 38.8702 26.3885 38.8534C26.9201 38.8454 27.5026 39.0174 28.0351 38.8534C28.3307 38.7637 28.6093 38.4143 29.0444 38.4277C29.7756 38.45 30.382 39.2158 31.0639 39.282C32.9949 39.464 33.6435 37.8746 35.6876 38.1082C36.1182 38.5422 36.2405 38.8727 36.6974 39.0149C37.3701 39.2199 38.1619 38.9717 38.8781 38.9599C39.2381 38.9574 39.715 39.0723 39.9923 39.0149C40.4625 38.9134 40.7323 38.4852 41.162 38.4277C41.4271 38.3908 41.7337 38.4936 42.0139 38.4797C42.8959 38.4332 44.8481 37.9257 45.4123 37.573C45.6658 37.4179 45.9335 37.0119 46.316 36.6642C46.6351 36.3774 46.975 36.0494 47.2205 35.7571C47.9781 34.8516 49.1306 33.2672 49.823 34.6914C50.391 35.8556 49.8761 37.4581 49.4535 38.7477C49.124 39.7438 47.6903 42.1137 50.0368 41.7367C50.4423 41.6712 51.0525 41.2317 51.5252 40.9352C54.8744 38.8316 57.6898 36.3035 63.0038 36.3987C64.9486 37.8226 61.9084 39.5324 61.9936 41.4163C62.9921 41.7245 63.6373 41.035 64.3852 40.8287C64.8258 40.7075 65.2952 40.7486 65.7141 40.6144C66.6136 40.325 67.374 39.5739 68.1591 39.0665C69.0056 38.5208 69.8775 38.0973 71.0811 37.9991C71.3233 38.3988 71.5588 38.7993 71.6661 39.3344C73.0584 39.9455 74.0181 40.7868 75.4926 41.0967C77.2524 41.4611 79.0732 41.2456 80.6463 41.0967C81.4727 41.0166 82.1905 40.8874 82.8779 40.6144C83.5298 40.3552 84.1495 39.9652 84.8469 39.8146C85.5631 39.659 86.2254 39.7903 86.8656 39.7601C87.2227 39.7438 87.5083 39.5894 87.8754 39.6553C88.1347 39.6997 88.3648 39.9207 88.6713 39.9732C89.1674 40.0604 90.5246 40.1313 90.7986 40.0273C91.0015 39.9514 91.2016 39.7492 91.4346 39.7085C91.7127 39.659 91.9666 39.7735 92.2322 39.7085C92.6974 39.5894 92.9133 39.1596 93.348 39.0665C93.6124 39.3709 94.0333 39.5173 94.3578 39.7601C95.8015 39.797 97.0697 40.2785 98.3969 39.9207C99.25 39.6922 100.185 39.0803 101.268 39.5471C100.784 40.1124 100.24 40.6144 100.099 41.5215C99.7232 41.8533 99.5887 42.2311 99.3022 42.5373C98.9865 42.8657 98.7126 43.1756 98.4491 43.4968C97.3904 44.7881 96.8066 46.4765 95.5797 47.5011C95.3083 47.7246 94.9103 47.7901 94.676 48.0329C94.3165 48.4099 94.2643 48.836 93.9314 49.1539C93.2691 49.7914 92.3717 50.269 91.6492 50.81C90.8825 51.377 90.143 51.9701 89.4151 52.5165C85.7318 55.2769 82.9326 59.3068 81.656 64.5776C81.3933 65.6655 81.0551 66.9588 81.1758 68.1C81.4831 70.917 85.1814 71.7939 87.0786 70.2338C88.7235 68.883 89.461 66.5541 90.5856 64.6308C91.189 63.5979 91.9027 62.6367 92.3913 61.5349C93.2691 59.5609 93.9519 57.2572 94.8882 55.4522C95.031 55.1825 95.269 54.9041 95.3667 54.6503C95.553 54.1873 95.5438 53.7558 95.6866 53.3716C96.146 52.1282 96.7214 51.3745 97.3888 50.1684C97.4451 49.9482 97.0593 50.1751 97.175 49.9004C97.2434 49.5976 97.4401 49.4231 97.5992 49.2076V48.5672C97.9074 48.4279 97.9346 48.0429 98.0786 47.7662C98.4891 46.9739 98.8921 45.9402 99.4066 45.2046C99.5933 44.9395 99.8702 44.7747 100.045 44.5126C100.711 43.4968 101.173 42.5289 101.853 41.5215C102.129 41.1105 102.456 40.6748 102.861 40.1355C103.114 39.7962 103.667 38.8605 103.925 38.7477C104.627 38.4357 105.495 38.952 106.315 38.7477C107.019 38.5703 107.43 37.9584 108.281 37.9991C110.148 39.6565 114.191 39.5118 117.315 39.0665C117.417 39.3042 117.465 39.5961 117.582 39.8146C118.021 40.0537 118.432 40.125 118.91 40.4538C119.236 40.6807 119.403 41.1499 119.761 41.3081C120.12 41.4691 120.758 41.4448 121.303 41.576C121.798 41.6947 122.315 41.831 122.789 41.9497C125.508 42.627 128.276 42.7277 129.803 40.9352C130.982 41.0724 132.15 39.7551 133.26 40.6144C134.121 40.216 134.831 40.705 135.649 40.7754C136.33 40.8316 137.123 40.8551 137.777 40.6693C138.309 40.5154 138.753 40.1619 139.264 40.1355C139.69 40.1124 140.179 40.2814 140.645 40.2403C141.507 40.169 142.509 39.5001 143.676 39.441C144.198 39.4133 144.762 39.5768 145.269 39.5471C145.984 39.5051 146.434 39.004 146.969 38.8534C148.091 38.5368 149.711 39.0543 150 37.6263C148.548 37.0329 147.151 38.3527 145.96 38.4797Z" fill="white"/>
  <path fill-rule="evenodd" clip-rule="evenodd" d="M122.367 31.7637C121.584 32.0447 120.401 31.9314 120.628 30.6401C120.995 30.1984 121.83 29.7738 122.264 30.4027C122.367 30.7627 122.447 31.3735 122.367 31.7637Z" fill="white"/>
  <path fill-rule="evenodd" clip-rule="evenodd" d="M146.131 48.5851C94.6931 46.3572 48.063 45.529 2.9668 46.9081C22.4696 45.0826 46.9404 44.5267 72.1171 44.7361C87.1896 44.8621 100.528 45.5456 118.27 46.3522C128.254 46.8053 138.775 46.6042 146.131 48.5851Z" fill="white"/>
  <path fill-rule="evenodd" clip-rule="evenodd" d="M0.0324409 32.0453C-0.00207955 31.9645 0.000415909 31.9135 0 31.8944V31.8082L0.0519886 31.741C0.08235 31.6984 1.18285 30.2741 4.75051 29.0389C8.25413 27.8261 11.3086 26.217 12.7663 25.6015C13.4164 25.3287 14.3692 24.5872 15.1304 23.9198C15.8965 23.2512 16.4871 22.6597 16.4875 22.6573L16.5207 22.6245L16.5648 22.6038C16.5652 22.6017 17.2723 22.2867 18.3761 21.6177C19.4795 20.9499 20.9722 19.9361 22.5157 18.5566C25.6491 15.7604 26.6968 15.5734 27.5195 14.5973C28.5018 13.4727 31.5987 11.811 31.6108 11.7986L31.817 11.7389L33.1321 11.9586L32.574 12.5733C32.5715 12.5741 30.5993 14.007 30.0078 14.4012C29.6019 14.669 26.8877 16.7883 25.4108 18.0832C24.9221 18.5089 24.5503 18.8766 24.4954 18.9719C24.334 19.2107 24.0358 19.4192 23.6365 19.6878C23.2389 19.9481 22.749 20.2391 22.2557 20.5354C21.2746 21.1149 20.2481 21.7603 20.014 22.0923C19.6251 22.5951 18.6061 23.1974 17.4777 23.9033C17.0635 24.3654 16.0903 24.9582 14.5102 25.9969C13.0425 27.4282 7.23391 29.6341 6.19621 29.7738C5.92629 29.7999 5.07284 30.1058 4.16491 30.4859C3.24867 30.8648 2.24009 31.3195 1.54261 31.6523C1.08677 31.8679 0.732416 32.0577 0.716611 32.0751C0.587264 32.173 0.489109 32.2343 0.338134 32.2401C0.333559 32.2409 0.32732 32.2409 0.323161 32.2409C0.184248 32.2409 0.0553159 32.1228 0.0324409 32.0453Z" fill="white"/>
  <path fill-rule="evenodd" clip-rule="evenodd" d="M11.3992 52.1992C10.7505 51.4822 9.61016 50.9974 8.57052 50.9974C6.46848 50.9974 4.73589 52.6345 4.73589 54.5038C4.73589 55.3934 5.16094 56.2319 5.86527 56.8587C6.56916 57.4649 7.57553 57.9093 8.57052 57.9093C9.54275 57.9093 10.7728 57.4349 11.3992 56.7475V57.4147C10.6052 58.0106 9.63249 58.3644 8.59285 58.3644C6.24479 58.3644 4.19922 56.596 4.19922 54.4639C4.19922 52.3005 6.21152 50.5424 8.60379 50.5424C9.62111 50.5424 10.6498 50.906 11.3992 51.5328V52.1992Z" fill="white"/>
  <path fill-rule="evenodd" clip-rule="evenodd" d="M13.0788 54.4536C13.0788 56.3332 14.625 57.9093 16.4996 57.9093C18.3649 57.9093 19.9208 56.3233 19.9208 54.4536C19.9208 52.5732 18.3649 50.9974 16.4996 50.9974C14.625 50.9974 13.0788 52.5732 13.0788 54.4536ZM20.3996 54.4536C20.3996 56.596 18.614 58.3644 16.4996 58.3644C14.3852 58.3644 12.5996 56.596 12.5996 54.4536C12.5996 52.3104 14.3754 50.5424 16.4996 50.5424C18.614 50.5424 20.3996 52.3104 20.3996 54.4536Z" fill="white"/>
  <path fill-rule="evenodd" clip-rule="evenodd" d="M24.6542 54.1946C25.1792 54.1946 25.7033 54.1739 26.1274 53.8311C26.5287 53.5305 26.7179 53.0629 26.7179 52.5966C26.7179 52.0157 26.4283 51.4344 25.826 51.1858C25.3796 50.9884 24.8106 51.0091 24.3201 51.0091H22.7351V54.1946H24.6542ZM27.5992 58.3644H26.9856L24.2419 54.661H22.7351V58.3644H22.1992V50.5424H24.4874C25.1678 50.5424 25.8369 50.5529 26.4056 50.9368C27.0083 51.3312 27.2537 51.9531 27.2537 52.6173C27.2537 53.9765 26.2383 54.6817 24.8446 54.661L27.5992 58.3644Z" fill="white"/>
  <path fill-rule="evenodd" clip-rule="evenodd" d="M30.9969 54.1841C31.5537 54.1841 32.0539 54.1215 32.4968 53.7579C32.8724 53.4472 33.054 53.0426 33.054 52.5864C33.054 52.0982 32.8382 51.6111 32.4064 51.3198C31.9743 51.0201 31.4286 51.0091 30.9061 51.0091H28.7449V54.1841H30.9969ZM28.7449 58.3644H28.1992V50.5424H30.9738C31.6449 50.5424 32.2925 50.5838 32.8266 50.9985C33.3495 51.4035 33.5992 51.9946 33.5992 52.6067C33.5992 53.1669 33.3607 53.79 32.8836 54.1524C32.3606 54.5675 31.6449 54.6508 30.9738 54.6508H28.7449V58.3644Z" fill="white"/>
  <path fill-rule="evenodd" clip-rule="evenodd" d="M34.0781 54.4536C34.0781 56.3332 35.6239 57.9093 37.4998 57.9093C39.3651 57.9093 40.9212 56.3233 40.9212 54.4536C40.9212 52.5732 39.3651 50.9974 37.4998 50.9974C35.6239 50.9974 34.0781 52.5732 34.0781 54.4536ZM41.3996 54.4536C41.3996 56.596 39.6143 58.3644 37.4998 58.3644C35.3853 58.3644 33.5996 56.596 33.5996 54.4536C33.5996 52.3104 35.3751 50.5424 37.4998 50.5424C39.6143 50.5424 41.3996 52.3104 41.3996 54.4536Z" fill="white"/>
  <path fill-rule="evenodd" clip-rule="evenodd" d="M45.6544 54.1946C46.179 54.1946 46.7027 54.1739 47.1268 53.8311C47.5287 53.5305 47.7178 53.0629 47.7178 52.5966C47.7178 52.0157 47.4278 51.4344 46.8254 51.1858C46.3795 50.9884 45.8103 51.0091 45.3198 51.0091H43.7338V54.1946H45.6544ZM48.5992 58.3644H47.986L45.2416 54.661H43.7338V58.3644H43.1992V50.5424H45.4871C46.1676 50.5424 46.8368 50.5529 47.4059 50.9368C48.0082 51.3312 48.2537 51.9531 48.2537 52.6173C48.2537 53.9765 47.2386 54.6817 45.8435 54.661L48.5992 58.3644Z" fill="white"/>
  <path fill-rule="evenodd" clip-rule="evenodd" d="M52.2052 51.7671L50.5168 55.4226H53.8824L52.2052 51.7671ZM50.3113 55.874L49.1585 58.3644H48.5996L52.2052 50.5424L55.7996 58.3644H55.2402L54.088 55.874H50.3113Z" fill="white"/>
  <path fill-rule="evenodd" clip-rule="evenodd" d="M56.9626 58.3644H56.4374V51.0091H54V50.5424H59.4V51.0091H56.9626V58.3644Z" fill="white"/>
  <path fill-rule="evenodd" clip-rule="evenodd" d="M60.5996 58.3644H61.1996V50.5424H60.5996V58.3644Z" fill="white"/>
  <path fill-rule="evenodd" clip-rule="evenodd" d="M62.8796 54.4536C62.8796 56.3332 64.4254 57.9093 66.3004 57.9093C68.1656 57.9093 69.7216 56.3233 69.7216 54.4536C69.7216 52.5732 68.1656 50.9974 66.3004 50.9974C64.4254 50.9974 62.8796 52.5732 62.8796 54.4536ZM70.2004 54.4536C70.2004 56.596 68.4148 58.3644 66.3004 58.3644C64.186 58.3644 62.4004 56.596 62.4004 54.4536C62.4004 52.3104 64.1762 50.5424 66.3004 50.5424C68.4148 50.5424 70.2004 52.3104 70.2004 54.4536Z" fill="white"/>
  <path fill-rule="evenodd" clip-rule="evenodd" d="M79.2 58.3644L72.5068 51.6922V58.1163H72V50.5424L78.6928 57.1649V50.6413H79.2V58.3644Z" fill="white"/>
  <path fill-rule="evenodd" clip-rule="evenodd" d="M4.67803 65.2835C4.67803 67.1639 6.22381 68.7395 8.09922 68.7395C9.96408 68.7395 11.5204 67.1532 11.5204 65.2835C11.5204 63.404 9.96408 61.8276 8.09922 61.8276C6.22381 61.8276 4.67803 63.404 4.67803 65.2835ZM11.9992 65.2835C11.9992 67.4258 10.2136 69.195 8.09922 69.195C5.9848 69.195 4.19922 67.4258 4.19922 65.2835C4.19922 63.1413 5.97464 61.3729 8.09922 61.3729C10.2136 61.3729 11.9992 63.1413 11.9992 65.2835Z" fill="white"/>
  <path fill-rule="evenodd" clip-rule="evenodd" d="M14.9205 61.8393V64.6823H18.5244V65.1487H14.9205V69.195H14.4004V61.3729H18.6004V61.8393H14.9205Z" fill="white"/>
  <path fill-rule="evenodd" clip-rule="evenodd" d="M30.0008 69.195L23.3083 62.5231V68.9469H22.8008V61.3729L29.4932 67.9955V61.4723H30.0008V69.195Z" fill="white"/>
  <path fill-rule="evenodd" clip-rule="evenodd" d="M32.2555 61.8393V64.6823H35.9251V65.1487H32.2555V68.7278H36.0008V69.195H31.8008V61.3729H36.0008V61.8393H32.2555Z" fill="white"/>
  <path fill-rule="evenodd" clip-rule="evenodd" d="M39.9415 67.7476L42.9151 60.1694L45.8887 67.7476L48.093 60.5894H48.5992L45.9209 69.1949L42.8837 61.4952L39.8565 69.1949L37.1992 60.5894H37.7055L39.9415 67.7476Z" fill="white"/>
  <path fill-rule="evenodd" clip-rule="evenodd" d="M52.1992 61.3729H52.7776L55.1994 65.3359L57.6213 61.3729H58.1992L55.4613 65.8539V69.195H54.9376V65.8539L52.1992 61.3729Z" fill="white"/>
  <path fill-rule="evenodd" clip-rule="evenodd" d="M58.0784 65.2835C58.0784 67.1639 59.6243 68.7395 61.4994 68.7395C63.3651 68.7395 64.9208 67.1532 64.9208 65.2835C64.9208 63.404 63.3651 61.8276 61.4994 61.8276C59.6243 61.8276 58.0784 63.404 58.0784 65.2835ZM65.3996 65.2835C65.3996 67.4258 63.6139 69.195 61.4994 69.195C59.3849 69.195 57.5996 67.4258 57.5996 65.2835C57.5996 63.1413 59.3747 61.3729 61.4994 61.3729C63.6139 61.3729 65.3996 63.1413 65.3996 65.2835Z" fill="white"/>
  <path fill-rule="evenodd" clip-rule="evenodd" d="M69.6548 65.0248C70.1785 65.0248 70.7027 65.0037 71.1272 64.6616C71.5282 64.361 71.7182 63.8935 71.7182 63.4271C71.7182 62.8463 71.4282 62.2646 70.8259 62.0156C70.3799 61.8189 69.8108 61.8393 69.3194 61.8393H67.7343V65.0248H69.6548ZM72.5992 69.195H71.9864L69.2421 65.4915H67.7343V69.195H67.1992V61.3729H69.4867C70.1676 61.3729 70.8363 61.3831 71.4055 61.7674C72.0087 62.1606 72.2533 62.7837 72.2533 63.4475C72.2533 64.8066 71.2386 65.5118 69.8444 65.4915L72.5992 69.195Z" fill="white"/>
  <path fill-rule="evenodd" clip-rule="evenodd" d="M78.2481 61.3729H78.9494L74.9075 65.1385L79.2008 69.195H78.5106L74.5454 65.4606L74.3262 65.6674V69.195H73.8008V61.3729H74.3262V65.0248L78.2481 61.3729Z" fill="white"/>
</svg>
