<svg viewBox="0 0 247 30" fill="none" xmlns="http://www.w3.org/2000/svg">
    <path d="M74.9443 0.275879C78.4233 0.275879 81.1569 2.52501 78.7422 7.70557L76.376 12.7563C74.3556 17.0771 72.4542 21.155 71.082 24.0103C69.0987 28.1485 66.5879 29.6833 61.6152 29.7261H55.8369C53.26 29.726 47.9991 28.4818 51.5156 21.0737L55.0156 13.686C56.674 10.2306 58.1059 7.20235 58.9648 5.36377C60.5639 1.94082 63.0492 0.275879 66.5713 0.275879H74.9443ZM91.8428 0.275879H98.9844C103.511 0.34077 105.467 2.54113 103.279 7.24561L101.783 10.4634L95.208 10.4146C95.2175 10.3937 96.6944 7.16417 96.8291 6.8999C97.4341 5.69403 96.948 5.27786 96.0459 5.27783H92.3184C91.1839 5.27783 90.7464 5.51013 90.0117 7.05127C90.0117 7.05127 83.5292 20.6028 82.708 22.3442C82.0598 23.7178 82.4381 24.2583 83.5186 24.2583H87.127C88.5261 24.2583 88.9312 23.9989 89.5254 22.7173L91.5674 18.2993H87.9375L90.2275 13.4321L100.648 13.4702L95.5322 24.6909C93.528 29.082 91.3729 29.7693 86.9863 29.7261H81.498C75.3505 29.7261 74.0487 25.8054 76.2959 21.0737C76.2959 21.0737 82.4383 8.13792 83.7402 5.36377C84.4405 3.81148 85.5831 2.50036 87.0244 1.59521C88.4658 0.690158 90.1419 0.231448 91.8428 0.275879ZM27.001 0.442871C29.9991 0.453733 32.8241 2.79538 30.5391 7.85693C29.2372 10.7338 28.0917 13.2107 27.5137 14.4058C25.7148 18.1206 23.4085 19.4782 18.9951 19.4458H12.1016L7.34766 29.688H0.271484L13.8848 0.442871H27.001ZM50.6787 0.442871C51.986 0.442872 53.6981 0.940862 54.5732 2.31982C55.1567 3.26618 55.5672 4.95836 54.2275 7.72705C54.2109 7.76054 52.8613 10.6859 51.9863 12.4917C50.9059 14.7088 49.02 15.9576 46.373 16.2388C47.4211 16.8877 49.08 18.197 47.7402 21.4849C47.7311 21.5452 46.1178 25.5599 45.5791 26.8325C45.2095 27.7446 44.9273 28.6902 44.7363 29.6558H37.7461C37.7461 29.6558 39.0695 25.951 40.7334 22.3765C41.4302 20.8949 41.5547 19.7701 41.1064 19.0347C40.925 18.7844 40.6898 18.5779 40.4189 18.4292C40.1481 18.2805 39.8474 18.1938 39.5391 18.1753H35.8389L30.583 29.645H23.6738L37.4004 0.442871H50.6787ZM124.256 0.427246C125.558 0.42735 127.269 0.924527 128.145 2.32471C128.728 3.27105 129.139 4.96417 127.799 7.73291C127.78 7.78368 126.435 10.6962 125.562 12.4966C124.493 14.7137 122.597 15.9629 119.95 16.2388C120.998 16.8877 122.651 18.1967 121.316 21.4683C121.313 21.5134 119.696 25.5403 119.156 26.8159C118.786 27.7281 118.501 28.6737 118.308 29.6392H111.317C111.322 29.6253 112.644 25.9285 114.305 22.3608C115.002 20.8791 115.121 19.7535 114.678 19.0181C114.496 18.7679 114.261 18.5612 113.99 18.4126C113.72 18.2641 113.419 18.1773 113.111 18.1587H109.416L104.159 29.6284H97.2666L110.993 0.427246H124.256ZM149.127 5.59131H139.943L137.112 11.6587H146.01L143.735 16.5259H134.87L131.176 24.313H141.661L139.171 29.6069H121.884L135.535 0.404785H151.536L149.127 5.59131ZM237.446 5.59131H228.263L225.432 11.6587H234.329L232.055 16.5259H223.189L219.495 24.313H230.002L227.49 29.6011H210.203L223.854 0.404785H239.85L237.446 5.59131ZM182.663 29.5962H175.581L189.323 0.351074H196.492L182.663 29.5962ZM198.011 26.1187L214.05 0.356934H221.499L201.474 29.5962H191.89L198.696 0.356934H206.124L198.011 26.1187ZM182.323 5.57471H177.537C175.155 5.57471 174.836 7.34372 174.906 8.64697L175.495 19.4292C175.83 25.0424 173.053 29.5854 166.711 29.5854H158.154L160.602 24.2798H165.917C168.002 24.2798 168.856 23.2635 168.753 21.0356C168.753 21.0356 168.37 11.7999 168.213 8.96045C167.905 3.29318 171.265 0.361816 176.624 0.361816H184.781L182.323 5.57471ZM166.014 5.56396H161.228C158.845 5.56412 158.526 7.33303 158.597 8.63623L159.191 19.4517C159.569 25.8378 156.171 29.607 150.402 29.5747H141.704L144.151 24.269H149.607C151.687 24.269 152.542 23.2529 152.444 21.0249C152.444 21.0249 152.055 11.789 151.903 8.94971C151.671 4.3046 153.832 0.351254 160.314 0.351074H168.472L166.014 5.56396ZM71.0928 5.27197H67.3115C66.3824 5.27197 65.6694 5.56421 64.9834 7.02393C63.9732 9.16537 59.0351 19.8192 57.8574 22.3608C57.0474 24.1288 58.1278 24.2749 58.668 24.2749H61.7041C63.2219 24.2749 63.8651 23.9234 64.8428 21.8579L71.8652 6.8833C72.4539 5.63432 71.8112 5.23953 71.0928 5.27197ZM14.4355 14.3354H18.876C20.113 14.3354 20.9342 13.7947 21.5068 12.5728C21.6149 12.351 22.5874 10.3284 23.8623 7.62451C24.7591 5.73182 24.0618 5.23929 23.084 5.23389H18.6328L14.4355 14.3354ZM111.738 13.2808H116.547C117.741 13.2807 118.637 12.6533 119.221 11.4204L119.939 9.91748L121.144 7.38623C121.494 6.63493 121.571 6.05657 121.36 5.71045C121.277 5.59862 121.169 5.50636 121.046 5.44092C120.923 5.37547 120.786 5.33804 120.646 5.33154H115.385L111.738 13.2808ZM38.167 13.2534H42.9756C44.1638 13.2533 45.0602 12.6535 45.6436 11.4155L46.3623 9.89014L47.5674 7.35986C47.9185 6.60821 47.9939 6.0292 47.7832 5.68311C47.6996 5.57124 47.592 5.47902 47.4688 5.41357C47.3456 5.34826 47.2095 5.31072 47.0703 5.3042H41.916L38.167 13.2534ZM244.355 0.638184C244.984 0.639612 245.587 0.889574 246.031 1.33447C246.476 1.77936 246.725 2.38307 246.727 3.01221C246.728 3.48296 246.59 3.94354 246.329 4.33545C246.068 4.72756 245.696 5.0336 245.262 5.21436C244.827 5.39498 244.349 5.44268 243.888 5.35107C243.426 5.25944 243.002 5.03279 242.669 4.69971C242.336 4.36664 242.11 3.94196 242.019 3.47998C241.927 3.01794 241.975 2.53898 242.155 2.104C242.336 1.66908 242.642 1.29763 243.033 1.03662C243.425 0.77566 243.885 0.637119 244.355 0.638184ZM245.176 1.08545C244.795 0.926586 244.375 0.883935 243.97 0.963379C243.565 1.04281 243.192 1.24076 242.899 1.53174C242.606 1.8228 242.406 2.19424 242.323 2.59912C242.241 3.00399 242.28 3.42447 242.436 3.80713C242.591 4.18969 242.857 4.51766 243.198 4.74951C243.54 4.9814 243.943 5.10666 244.355 5.10986V5.11572C244.632 5.11787 244.906 5.065 245.162 4.96045C245.418 4.85595 245.65 4.70128 245.846 4.50635C246.042 4.31132 246.197 4.07918 246.303 3.82373C246.408 3.56813 246.463 3.29374 246.462 3.01709C246.462 2.6039 246.34 2.19973 246.111 1.85596C245.882 1.51229 245.557 1.24432 245.176 1.08545ZM244.625 1.68701C244.849 1.67033 245.073 1.71531 245.273 1.81689C245.369 1.87815 245.446 1.9635 245.498 2.06396C245.55 2.16445 245.575 2.27705 245.57 2.39014C245.57 2.91429 245.203 3.10873 244.733 3.11963L245.532 4.34717H245.149L244.388 3.11963H243.793V4.34717H243.469V1.68701H244.625ZM243.804 2.86572H244.601C244.917 2.85585 245.245 2.78284 245.257 2.35693C245.257 1.94632 244.895 1.89795 244.565 1.89795H243.804V2.86572Z" fill="white"/>
</svg>
