<svg width="24" height="24" viewBox="0 0 24 24" fill="none" xmlns="http://www.w3.org/2000/svg">
<path d="M2.99995 11.0002C2.71662 11.0002 2.47912 10.9044 2.28745 10.7127C2.09578 10.521 1.99995 10.2835 1.99995 10.0002C1.99995 9.71686 2.09578 9.47936 2.28745 9.2877C2.47912 9.09603 2.71662 9.0002 2.99995 9.0002H5.59995L1.99995 5.4252C1.79995 5.2252 1.69995 4.9877 1.69995 4.7127C1.69995 4.4377 1.79995 4.2002 1.99995 4.0002C2.19995 3.8002 2.43745 3.7002 2.71245 3.7002C2.98745 3.7002 3.22495 3.8002 3.42495 4.0002L6.99995 7.6002V5.0002C6.99995 4.71686 7.09579 4.47936 7.28745 4.2877C7.47912 4.09603 7.71662 4.0002 7.99995 4.0002C8.28329 4.0002 8.52079 4.09603 8.71245 4.2877C8.90412 4.47936 8.99995 4.71686 8.99995 5.0002V10.0002C8.99995 10.2835 8.90412 10.521 8.71245 10.7127C8.52079 10.9044 8.28329 11.0002 7.99995 11.0002H2.99995ZM3.99995 20.0002C3.44995 20.0002 2.97912 19.8044 2.58745 19.4127C2.19578 19.021 1.99995 18.5502 1.99995 18.0002V14.0002C1.99995 13.7169 2.09578 13.4794 2.28745 13.2877C2.47912 13.096 2.71662 13.0002 2.99995 13.0002C3.28328 13.0002 3.52078 13.096 3.71245 13.2877C3.90412 13.4794 3.99995 13.7169 3.99995 14.0002V18.0002H11C11.2833 18.0002 11.5208 18.096 11.7125 18.2877C11.9041 18.4794 12 18.7169 12 19.0002C12 19.2835 11.9041 19.521 11.7125 19.7127C11.5208 19.9044 11.2833 20.0002 11 20.0002H3.99995ZM20.2875 12.7127C20.0958 12.521 20 12.2835 20 12.0002V6.0002H12C11.7166 6.0002 11.4791 5.90436 11.2875 5.7127C11.0958 5.52103 11 5.28353 11 5.0002C11 4.71686 11.0958 4.47936 11.2875 4.2877C11.4791 4.09603 11.7166 4.0002 12 4.0002H20C20.55 4.0002 21.0208 4.19603 21.4125 4.5877C21.8041 4.97936 22 5.4502 22 6.0002V12.0002C22 12.2835 21.9041 12.521 21.7125 12.7127C21.5208 12.9044 21.2833 13.0002 21 13.0002C20.7166 13.0002 20.4791 12.9044 20.2875 12.7127ZM15 20.0002C14.7166 20.0002 14.4791 19.9044 14.2875 19.7127C14.0958 19.521 14 19.2835 14 19.0002V16.0002C14 15.7169 14.0958 15.4794 14.2875 15.2877C14.4791 15.096 14.7166 15.0002 15 15.0002H21C21.2833 15.0002 21.5208 15.096 21.7125 15.2877C21.9041 15.4794 22 15.7169 22 16.0002V19.0002C22 19.2835 21.9041 19.521 21.7125 19.7127C21.5208 19.9044 21.2833 20.0002 21 20.0002H15Z" fill="currentColor"/>
</svg>
