<svg width="24" height="24" viewBox="0 0 24 24" fill="none" xmlns="http://www.w3.org/2000/svg">
<path d="M4 20C3.45 20 2.97917 19.8042 2.5875 19.4125C2.19583 19.0208 2 18.55 2 18V12C2 11.7167 2.09583 11.4792 2.2875 11.2875C2.47917 11.0958 2.71667 11 3 11C3.28333 11 3.52083 11.0958 3.7125 11.2875C3.90417 11.4792 4 11.7167 4 12V18H20V6H12C11.7167 6 11.4792 5.90417 11.2875 5.7125C11.0958 5.52083 11 5.28333 11 5C11 4.71667 11.0958 4.47917 11.2875 4.2875C11.4792 4.09583 11.7167 4 12 4H20C20.55 4 21.0208 4.19583 21.4125 4.5875C21.8042 4.97917 22 5.45 22 6V18C22 18.55 21.8042 19.0208 21.4125 19.4125C21.0208 19.8042 20.55 20 20 20H4ZM14 13.425L16.375 15.8C16.575 16 16.8083 16.1 17.075 16.1C17.3417 16.1 17.575 16 17.775 15.8C17.975 15.6 18.075 15.3625 18.075 15.0875C18.075 14.8125 17.975 14.575 17.775 14.375L15.4 12H17C17.2833 12 17.5208 11.9042 17.7125 11.7125C17.9042 11.5208 18 11.2833 18 11C18 10.7167 17.9042 10.4792 17.7125 10.2875C17.5208 10.0958 17.2833 10 17 10H13C12.7167 10 12.4792 10.0958 12.2875 10.2875C12.0958 10.4792 12 10.7167 12 11V15C12 15.2833 12.0958 15.5208 12.2875 15.7125C12.4792 15.9042 12.7167 16 13 16C13.2833 16 13.5208 15.9042 13.7125 15.7125C13.9042 15.5208 14 15.2833 14 15V13.425ZM3 9C2.71667 9 2.47917 8.90417 2.2875 8.7125C2.09583 8.52083 2 8.28333 2 8V5C2 4.71667 2.09583 4.47917 2.2875 4.2875C2.47917 4.09583 2.71667 4 3 4H8C8.28333 4 8.52083 4.09583 8.7125 4.2875C8.90417 4.47917 9 4.71667 9 5V8C9 8.28333 8.90417 8.52083 8.7125 8.7125C8.52083 8.90417 8.28333 9 8 9H3Z" fill="currentColor"/>
</svg>
