<svg width="40" height="40" viewBox="0 0 40 40" fill="none" xmlns="http://www.w3.org/2000/svg">
<g opacity="1" clip-path="url(#clip0_10285_8603)">
<path d="M12.725 30.0008C14.23 30.0008 15.45 28.7808 15.45 27.2758C15.45 25.7708 14.23 24.5508 12.725 24.5508C11.22 24.5508 10 25.7708 10 27.2758C10 28.7808 11.22 30.0008 12.725 30.0008Z" fill="currentColor"/>
<path d="M10 10.5508V14.0883C18.7875 14.0883 25.9125 21.2133 25.9125 30.0008H29.45C29.45 19.2633 20.7375 10.5508 10 10.5508ZM10 17.6258V21.1633C14.875 21.1633 18.8375 25.1258 18.8375 30.0008H22.375C22.375 23.1633 16.8375 17.6258 10 17.6258Z" fill="currentColor"/>
</g>
<defs>
<clipPath id="clip0_10285_8603">
<rect width="30" height="30" fill="white" transform="translate(5 5)"/>
</clipPath>
</defs>
</svg>
