<svg width="180" height="180" viewBox="0 0 180 180" fill="none" xmlns="http://www.w3.org/2000/svg">
<g clip-path="url(#clip0_10177_4008)">
<path fill-rule="evenodd" clip-rule="evenodd" d="M171.599 73.5904L171.492 73.8179C168.497 80.199 164.388 86.7041 159.281 93.1566L158.258 94.4488L157.946 92.8306C154.667 75.8351 148.529 64.5128 146.044 60.4341L145.755 59.9621L146.118 59.5444C150.606 54.3943 154.548 49.0523 157.839 43.6662L158.454 42.6593L159.112 43.639C161.23 46.7923 162.973 49.7298 164.44 52.6215C167.653 59.0485 170.045 66.0189 171.548 73.3441L171.599 73.5904ZM173.083 84.9552L173.161 87.4462C173.472 97.3235 172.081 107.009 169.028 116.234C166.794 122.93 163.602 129.475 159.539 135.69L157.542 138.745L158.162 135.149C159.987 124.539 160.418 113.954 159.443 103.683L159.411 103.353L159.632 103.107C164.252 97.9688 168.334 92.5725 171.764 87.0692L173.083 84.9552ZM147.818 149.823L147.76 150.01L147.617 150.147C145.498 152.169 143.239 154.097 140.71 156.038L139.702 156.812L139.503 155.557C137.924 145.615 135.81 135.879 133.221 126.618L133.075 126.098L133.52 125.793C140.116 121.255 146.283 116.304 151.849 111.077L153.073 109.928L153.122 111.606C153.496 124.303 151.711 137.162 147.818 149.823ZM133.085 161.176C131.38 162.206 129.385 163.393 127.297 164.426C125.208 165.487 123.081 166.37 121.276 167.093L120.814 167.278L120.463 166.929C113.133 159.651 106.389 152.096 100.414 144.472L99.7889 143.676L100.73 143.304C105.097 141.574 109.492 139.609 113.795 137.465C117.552 135.582 121.536 133.349 126.331 130.44L127.192 129.919L127.453 130.89C130.015 140.409 132.029 150.346 133.442 160.425L133.511 160.919L133.085 161.176ZM112.679 170.102C109.479 170.999 106.545 171.671 103.713 172.159L103.516 172.193L103.329 172.126C90.8697 167.688 79.5089 161.43 69.5642 153.526L68.2466 152.48L69.9038 152.19C77.3356 150.893 85.0187 148.906 92.7408 146.288L93.2536 146.114L93.583 146.544C99.4102 154.124 105.949 161.627 113.016 168.847L113.91 169.759L112.679 170.102ZM84.9932 173.062C77.609 172.617 70.4522 171.26 63.7234 169.033C54.5326 165.961 45.9717 161.31 38.2733 155.209L36.3241 153.662L38.8047 153.862C45.2314 154.382 52.0145 154.316 58.8555 153.664L59.1882 153.633L59.4344 153.857C67.036 160.75 75.765 166.732 85.382 171.636L88.6098 173.281L84.9932 173.062ZM28.0467 145.612L27.8787 145.423C22.8647 139.777 18.7048 133.682 15.511 127.304C14.0797 124.473 12.813 121.434 11.5294 117.742L11.1423 116.63L12.3138 116.742C18.3635 117.314 25.0075 117.338 32.025 116.803L32.5751 116.762L32.7822 117.274C34.599 121.744 40.0748 133.518 51.6936 146.235L52.8041 147.449L51.1588 147.5C50.0331 147.534 48.9125 147.551 47.7986 147.551C41.0443 147.551 34.4819 146.916 28.2946 145.663L28.0467 145.612ZM9.10987 109.597L8.98932 109.089C6.04853 96.6885 6.00608 83.5968 8.86367 71.2301L9.04365 70.4592L9.80432 70.6732C14.2631 71.9195 19.1955 72.6819 24.4624 72.9417L25.2061 72.9774L25.1807 73.7228C24.9379 80.6915 25.269 87.5124 26.1621 93.9971C26.3556 95.6476 26.5322 96.8498 26.6324 97.4883L26.7988 98.0079C27.5476 102.146 28.5103 105.948 29.6598 109.313L29.9841 110.259L28.9857 110.313C26.8463 110.429 24.712 110.487 22.6423 110.487C18.1326 110.487 13.7537 110.21 9.62604 109.665L9.10987 109.597ZM11.1423 63.2647C14.5109 53.3092 19.6336 44.2045 26.3709 36.2068L26.8956 35.5836L27.4779 36.1559C28.4067 37.066 29.5647 37.8454 30.9213 38.4669L31.5546 38.7572L31.3169 39.4127C29.7803 43.6577 28.4814 48.4886 27.4559 53.7694L27.3353 54.3841C27.2046 55.0684 27.084 55.7612 26.9652 56.4574L26.7665 57.6392C26.6256 58.5205 26.4949 59.4068 26.3709 60.3017C26.1009 62.2459 25.8938 63.9575 25.7359 65.5469L25.6663 66.2566L24.9531 66.2278C20.2143 66.0342 15.7402 65.3652 11.6567 64.2343L10.8859 64.022L11.1423 63.2647ZM32.0912 30.0889C33.3629 28.8544 34.7094 27.6352 36.2052 26.3668L39.8184 23.3019L37.3377 27.3398C36.4294 28.817 35.5498 30.3928 34.723 32.0229L34.3851 32.6902L33.7144 32.3608C32.9979 32.0059 32.4342 31.5882 32.0386 31.1162L31.5869 30.5779L32.0912 30.0889ZM40.99 32.3846C43.9138 25.0882 46.6916 20.1011 47.7494 18.2961L47.8513 18.1229L49.5186 17.1636L49.5118 18.4795C49.4864 22.7755 49.5865 27.0851 49.8073 31.286L49.8378 31.8922L49.2537 32.0535C46.5965 32.7955 44.07 33.2557 41.7455 33.4204L40.5417 33.5053L40.99 32.3846ZM50.3693 39.6062C50.7055 44.3233 51.534 51.9848 53.5732 61.6873L53.7193 62.3767L53.0418 62.5702C46.4046 64.4754 39.8014 65.664 33.4173 66.1038L32.5106 66.1649L32.6158 65.2616C33.5701 57.0296 35.3665 48.7942 37.9541 40.7847L38.129 40.2396L38.7419 40.153C41.9934 40.2804 45.61 39.866 49.4354 38.927L50.3064 38.7131L50.3693 39.6062ZM55.1982 68.9531L55.3849 69.7138C58.9081 84.0264 62.7556 92.2804 62.9169 92.6251C64.1937 95.8683 65.5147 99.0165 66.8645 102.029L67.2092 102.796L66.4078 103.056C56.6482 106.226 46.9106 108.412 37.4651 109.554L36.881 109.624L36.6688 109.076C34.3596 103.1 32.8485 95.9889 32.1744 87.9369L32.1353 87.4615C32.0521 86.4104 31.9978 85.3457 31.9452 84.2828L31.9163 83.6919C31.8942 83.2606 31.8722 82.831 31.8586 82.4031L31.8399 81.3469C31.7873 78.7608 31.8195 76.1663 31.935 73.6294L31.9655 72.9434L32.6498 72.9095C39.6401 72.5478 46.9717 71.2878 54.4443 69.167L55.1982 68.9531ZM57.6839 13.2021L57.8792 13.2225C59.9421 13.4381 65.5571 14.153 73.1349 16.1159L74.2997 16.4181L73.5204 17.3368C72.0007 19.1282 70.1042 20.9145 67.8833 22.6448L67.4062 23.0166L66.9392 22.6295C61.8183 18.3997 58.1355 15.7763 56.7908 14.8458L55.6736 14.0732L57.6839 13.2021ZM71.9906 8.6446C73.6647 8.27444 75.0604 8.00106 76.3848 7.78371L77.0792 7.66994L77.2422 8.35424C77.3747 8.9044 77.3899 9.54116 77.2898 10.2458L77.1777 11.0354L76.395 10.8809C74.9738 10.599 73.5085 10.3477 72.0415 10.1304L67.975 9.52927L71.9906 8.6446ZM80.565 19.0789L80.8707 18.6323L81.3936 18.7784C88.5113 20.7718 96.517 24.3343 104.543 29.0802L105.321 29.5387L104.733 30.223C100.514 35.1388 95.5916 39.754 90.1056 43.9447L89.5453 44.3726L89.0801 43.8428C83.9303 37.9846 78.6005 32.6597 73.2419 28.0156L72.5712 27.4332L73.2521 26.8643C76.3321 24.2901 78.7924 21.6701 80.565 19.0789ZM83.8352 11.7825C84.1307 10.3222 84.1799 8.95704 83.9829 7.72598L83.8522 6.90584L84.6825 6.8532C95.0585 6.20455 105.57 7.5375 115.644 10.7892L116.408 11.0354L116.114 11.7842C114.556 15.7627 112.442 19.7293 109.832 23.5736L109.428 24.1713L108.812 23.7926C104.355 21.0537 99.7209 18.6527 95.0398 16.6592C91.2823 14.9969 87.6912 13.6504 84.3599 12.657L83.6994 12.4584L83.8352 11.7825ZM117.376 85.8755L117.079 85.2897L117.617 84.9144C125.889 79.1293 133.518 72.7176 140.293 65.8593L141.011 65.1325L141.497 66.0325C144.588 71.7803 150.103 83.9364 152.288 100.745L152.336 101.103L152.086 101.365C145.972 107.748 139.179 113.614 131.898 118.805L131.056 119.405L130.74 118.421C127.117 107.175 122.621 96.2249 117.376 85.8755ZM76.743 107.379L76.3695 106.632L77.1488 106.333C83.1493 104.041 88.9494 101.501 94.3895 98.7822C99.6276 96.1502 104.979 93.0819 110.749 89.404L111.455 88.954L111.83 89.7011C117.092 100.188 121.546 111.273 125.064 122.646L125.234 123.2L124.745 123.509C119.539 126.791 115.101 129.328 110.776 131.498C105.983 133.89 101.052 136.062 96.1146 137.959L95.5746 138.166L95.2334 137.697C88.1819 127.997 81.9607 117.795 76.743 107.379ZM70.0295 108.885L70.3215 109.475C75.4424 119.839 81.5261 130 88.4026 139.675L89.002 140.516L88.0189 140.832C79.2305 143.661 70.4947 145.619 62.0526 146.651L61.6944 146.695L61.4346 146.444C49.1739 134.57 42.7388 122.885 39.9933 116.976L39.5637 116.051L40.5757 115.91C49.9804 114.611 59.679 112.317 69.4063 109.093L70.0295 108.885ZM93.8954 49.5074L94.5168 49.0319C100.58 44.4014 105.988 39.2514 110.589 33.7243L111.031 33.1945L111.6 33.5868C114.455 35.5514 117.245 37.6535 119.892 39.8321C126.455 45.3948 132.265 51.7437 137.17 58.7089L137.528 59.2183L137.099 59.6666C130.735 66.3228 123.164 72.7753 114.598 78.8457L113.91 79.3331L113.501 78.5961C111.968 75.8402 110.34 73.0674 108.662 70.3573C104.572 63.4838 99.7736 56.6781 94.3912 50.1119L93.8954 49.5074ZM62.5858 66.53C66.8527 64.9865 71.1857 63.1221 75.4662 60.9894C79.3018 59.0621 83.2002 56.78 87.7337 53.8085L88.3008 53.4366L88.7303 53.9613C91.3197 57.1111 93.8173 60.339 96.157 63.5602C100.412 69.5576 104.394 75.898 107.992 82.4149L108.334 83.0364L107.737 83.4185C101.991 87.0862 96.6443 90.1562 91.3944 92.8C85.9916 95.5101 80.2 98.0418 74.1775 100.324L73.5136 100.575L73.2215 99.9283C71.9753 97.1758 70.7664 94.335 69.6237 91.4858C66.6625 83.466 64.136 75.3784 62.1104 67.4266L61.9406 66.7626L62.5858 66.53ZM56.188 29.5608L56.1456 28.4282C56.0811 26.793 56.0488 25.2716 56.0403 23.8792L56.0318 22.3255L57.2594 23.2781C58.4632 24.2103 59.6484 25.1493 60.8081 26.0934L61.6808 26.8032L60.6943 27.3415C60.1051 27.6641 59.5092 27.9816 58.903 28.2856C58.3953 28.5403 57.8961 28.7712 57.397 29.0021L56.188 29.5608ZM57.3817 36.2968C58.9607 35.6567 60.4396 34.9927 61.9015 34.2677C63.4364 33.4815 64.9697 32.6155 66.4519 31.7003L66.9155 31.4133L67.3332 31.7631C67.9648 32.2929 68.6524 32.8838 69.3673 33.5053C74.2556 37.9897 78.9503 42.7476 83.336 47.6616L83.9252 48.3205L83.1832 48.7993C79.2458 51.3429 75.8346 53.3177 72.4473 55.0158C68.9615 56.7749 65.2855 58.371 61.2122 59.8908L60.3921 60.1964L60.2087 59.3406C58.993 53.6811 58.032 48.0658 57.3477 42.6542C57.1457 40.6047 56.9979 38.7199 56.9096 37.0354L56.8825 36.4989L57.3817 36.2968ZM122.656 13.3889L123.381 13.7064C135.024 18.8106 145.517 26.686 153.727 36.4802L154.063 36.8792L153.806 37.3343C150.786 42.7323 147.067 48.0861 142.756 53.2464L142.118 54.0139L141.554 53.1887C135.603 44.4864 126.652 35.8706 115.668 28.2703L115.053 27.8458L115.471 27.226C118.354 22.9504 120.677 18.5423 122.371 14.1275L122.656 13.3889ZM89.8289 0C75.7871 0 62.2666 3.20755 49.6443 9.53097C5.30314 31.7648 -12.6965 85.9434 9.52077 130.304C20.3212 151.787 38.82 167.788 61.6078 175.358C70.8767 178.438 80.4598 180 90.0903 180C104.093 180.002 117.622 176.774 130.302 170.411C151.782 159.637 167.784 141.146 175.355 118.342C182.943 95.5338 181.19 71.135 170.422 49.6415C155.063 19.0212 124.181 0 89.8289 0Z" fill="url(#paint0_linear_10177_4008)"/>
</g>
<defs>
<linearGradient id="paint0_linear_10177_4008" x1="0" y1="90" x2="180" y2="90" gradientUnits="userSpaceOnUse">
<stop stop-color="#38739D"/>
<stop offset="1" stop-color="#06847E"/>
</linearGradient>
<clipPath id="clip0_10177_4008">
<rect width="180" height="180" fill="white"/>
</clipPath>
</defs>
</svg>
