<svg width="32" height="32" viewBox="0 0 32 32" fill="none" xmlns="http://www.w3.org/2000/svg">
<g clip-path="url(#clip0_10177_4007)">
<path fill-rule="evenodd" clip-rule="evenodd" d="M30.5065 13.0827L30.4875 13.1232C29.955 14.2576 29.2245 15.4141 28.3165 16.5612L28.1348 16.7909L28.0793 16.5032C27.4964 13.4818 26.4052 11.4689 25.9633 10.7438L25.912 10.6599L25.9766 10.5857C26.7744 9.67009 27.4753 8.72041 28.0603 7.76288L28.1695 7.58387L28.2866 7.75805C28.6631 8.31862 28.9731 8.84086 29.2339 9.35494C29.805 10.4975 30.2303 11.7367 30.4974 13.039L30.5065 13.0827ZM30.7703 15.1031L30.7842 15.546C30.8394 17.302 30.5922 19.0238 30.0495 20.6639C29.6522 21.8542 29.0847 23.0179 28.3624 24.1227L28.0074 24.6658L28.1176 24.0264C28.4421 22.1403 28.5188 20.2585 28.3455 18.4325L28.3398 18.3739L28.379 18.3301C29.2004 17.4167 29.926 16.4573 30.5357 15.479L30.7703 15.1031ZM26.2787 26.6352L26.2685 26.6684L26.2431 26.6928C25.8664 27.0524 25.4646 27.395 25.0152 27.74L24.8359 27.8777L24.8006 27.6546C24.5198 25.8871 24.144 24.1562 23.6837 22.5098L23.6577 22.4174L23.7368 22.3631C24.9095 21.5565 26.0059 20.6763 26.9953 19.7471L27.213 19.5427L27.2217 19.841C27.2881 22.0984 26.9709 24.3844 26.2787 26.6352ZM23.6596 28.6535C23.3565 28.8367 23.0018 29.0477 22.6305 29.2313C22.2593 29.4199 21.881 29.5769 21.5602 29.7055L21.4781 29.7384L21.4156 29.6762C20.1125 28.3824 18.9135 27.0394 17.8513 25.684L17.7402 25.5424L17.9075 25.4763C18.6838 25.1687 19.4653 24.8194 20.2302 24.4382C20.8982 24.1034 21.6064 23.7064 22.4588 23.1893L22.6118 23.0967L22.6583 23.2693C23.1138 24.9616 23.4718 26.7281 23.7229 28.52L23.7353 28.6079L23.6596 28.6535ZM20.0319 30.2404C19.4629 30.3998 18.9413 30.5193 18.4378 30.606L18.4028 30.612L18.3696 30.6002C16.1546 29.8111 14.1349 28.6988 12.367 27.2935L12.1327 27.1076L12.4273 27.056C13.7486 26.8253 15.1144 26.4722 16.4873 26.0067L16.5784 25.9759L16.637 26.0523C17.6729 27.3998 18.8354 28.7338 20.0917 30.0173L20.2507 30.1794L20.0319 30.2404ZM15.1099 30.7666C13.7971 30.6875 12.5248 30.4463 11.3286 30.0502C9.69468 29.5041 8.17274 28.6773 6.80414 27.5927L6.45762 27.3177L6.89862 27.3533C8.04113 27.4457 9.24703 27.4339 10.4632 27.318L10.5224 27.3126L10.5661 27.3524C11.9175 28.5777 13.4693 29.6412 15.179 30.513L15.7528 30.8055L15.1099 30.7666ZM4.98609 25.8865L4.9562 25.853C4.06484 24.8493 3.3253 23.7656 2.75751 22.6318C2.50305 22.1286 2.27787 21.5882 2.04967 20.9319L1.98085 20.7342L2.18913 20.7541C3.26463 20.8559 4.44577 20.8601 5.69333 20.765L5.79113 20.7578L5.82795 20.8486C6.15094 21.6435 7.12441 23.7366 9.18998 25.9973L9.38739 26.2132L9.0949 26.2222C8.89477 26.2283 8.69555 26.2313 8.49753 26.2313C7.29677 26.2313 6.13011 26.1184 5.03016 25.8956L4.98609 25.8865ZM1.61953 19.4839L1.5981 19.3936C1.07529 17.1891 1.06775 14.8616 1.57576 12.6631L1.60776 12.5261L1.74299 12.5641C2.53565 12.7857 3.41253 12.9212 4.34888 12.9674L4.48109 12.9738L4.47656 13.1063C4.4334 14.3452 4.49226 15.5578 4.65103 16.7106C4.68544 17.004 4.71684 17.2177 4.73465 17.3312L4.76423 17.4236C4.89734 18.1593 5.06849 18.8352 5.27285 19.4335L5.3305 19.6016L5.15301 19.6113C4.77268 19.6318 4.39325 19.6421 4.02529 19.6421C3.22357 19.6421 2.4451 19.5929 1.7113 19.496L1.61953 19.4839ZM1.98085 11.2471C2.57972 9.4772 3.49041 7.85857 4.68816 6.43677L4.78143 6.32598L4.88497 6.42771C5.05008 6.58951 5.25594 6.72807 5.49712 6.83856L5.60971 6.89018L5.56746 7.0067C5.29428 7.76137 5.06336 8.62019 4.88104 9.55901L4.85961 9.66828C4.83637 9.78994 4.81494 9.9131 4.79381 10.0369L4.75849 10.247C4.73344 10.4036 4.7102 10.5612 4.68816 10.7203C4.64017 11.0659 4.60334 11.3702 4.57527 11.6528L4.56289 11.779L4.43611 11.7738C3.59365 11.7394 2.79826 11.6205 2.07231 11.4194L1.93527 11.3817L1.98085 11.2471ZM5.7051 5.34913C5.93119 5.12967 6.17056 4.91293 6.43649 4.68743L7.07883 4.14256L6.63782 4.8604C6.47633 5.12303 6.31997 5.40317 6.17297 5.69296L6.1129 5.8116L5.99367 5.75303C5.86629 5.68994 5.76607 5.61568 5.69574 5.53176L5.61545 5.43607L5.7051 5.34913ZM7.28711 5.75726C7.8069 4.46012 8.30073 3.57353 8.48878 3.25265L8.50689 3.22186L8.80331 3.0513L8.8021 3.28525C8.79757 4.04898 8.81538 4.81512 8.85462 5.56195L8.86006 5.66972L8.75622 5.69839C8.28382 5.83031 7.83467 5.91212 7.42143 5.9414L7.20742 5.95649L7.28711 5.75726ZM8.95454 7.04111C9.0143 7.8797 9.16161 9.24174 9.52413 10.9666L9.55009 11.0892L9.42965 11.1236C8.24971 11.4623 7.07581 11.6736 5.94085 11.7518L5.77966 11.7627L5.79837 11.6021C5.96801 10.1386 6.28737 8.67453 6.7474 7.25061L6.77849 7.15371L6.88745 7.13831C7.4655 7.16095 8.10845 7.0873 8.78852 6.92036L8.94337 6.88233L8.95454 7.04111ZM9.813 12.2583L9.84621 12.3936C10.4726 14.938 11.1565 16.4054 11.1852 16.4667C11.4122 17.0433 11.6471 17.6029 11.887 18.1384L11.9483 18.2749L11.8058 18.3211C10.0708 18.8847 8.33966 19.2732 6.66046 19.4763L6.55662 19.4887L6.51889 19.3912C6.10837 18.3289 5.83973 17.0647 5.71989 15.6332L5.71295 15.5487C5.69816 15.3618 5.6885 15.1726 5.67914 14.9836L5.67401 14.8786C5.67008 14.8019 5.66616 14.7255 5.66375 14.6494L5.66043 14.4617C5.65107 14.0019 5.6568 13.5407 5.67733 13.0897L5.68276 12.9677L5.80441 12.9617C7.04713 12.8974 8.35053 12.6734 9.67898 12.2964L9.813 12.2583ZM10.2549 2.34704L10.2896 2.35066C10.6564 2.389 11.6546 2.51608 13.0018 2.86505L13.2088 2.91878L13.0703 3.08209C12.8001 3.40056 12.463 3.71813 12.0681 4.02573L11.9833 4.09184L11.9003 4.02302C10.9899 3.27106 10.3352 2.80467 10.0961 2.63925L9.89752 2.5019L10.2549 2.34704ZM12.7983 1.53682C13.0959 1.47101 13.3441 1.42241 13.5795 1.38377L13.703 1.36355L13.7319 1.4852C13.7555 1.583 13.7582 1.69621 13.7404 1.82148L13.7205 1.96185L13.5813 1.93438C13.3287 1.88427 13.0682 1.83959 12.8074 1.80095L12.0844 1.69409L12.7983 1.53682ZM14.3227 3.39181L14.377 3.31242L14.47 3.33838C15.7353 3.69277 17.1586 4.3261 18.5854 5.16982L18.7237 5.25133L18.6192 5.37298C17.8691 6.24689 16.9941 7.06737 16.0188 7.81239L15.9192 7.88846L15.8365 7.79428C14.9209 6.75283 13.9734 5.80616 13.0208 4.98055L12.9016 4.87701L13.0226 4.77588C13.5702 4.31825 14.0075 3.85246 14.3227 3.39181ZM14.904 2.09467C14.9566 1.83507 14.9653 1.59236 14.9303 1.37351L14.9071 1.2277L15.0547 1.21835C16.8993 1.10303 18.768 1.34 20.5589 1.91808L20.6948 1.96185L20.6425 2.09498C20.3654 2.80226 19.9896 3.50742 19.5257 4.19086L19.4539 4.29712L19.3443 4.2298C18.5519 3.74288 17.7282 3.31604 16.896 2.96164C16.228 2.66611 15.5895 2.42673 14.9973 2.25014L14.8799 2.21482L14.904 2.09467ZM20.8668 15.2668L20.814 15.1626L20.9097 15.0959C22.3803 14.0674 23.7365 12.9276 24.9409 11.7083L25.0686 11.5791L25.1549 11.7391C25.7046 12.7609 26.685 14.922 27.0735 17.9102L27.082 17.9739L27.0376 18.0204C25.9506 19.1551 24.7429 20.1981 23.4486 21.1209L23.2988 21.2275L23.2427 21.0527C22.5986 19.0534 21.7992 17.1067 20.8668 15.2668ZM13.6432 19.0896L13.5768 18.9568L13.7153 18.9037C14.7821 18.4962 15.8132 18.0446 16.7804 17.5613C17.7116 17.0934 18.663 16.5479 19.6887 15.894L19.8143 15.814L19.881 15.9469C20.8164 17.8112 21.6082 19.7818 22.2336 21.8037L22.2638 21.9022L22.1769 21.9571C21.2514 22.5406 20.4623 22.9916 19.6935 23.3774C18.8414 23.8027 17.9648 24.1888 17.087 24.526L16.991 24.5628L16.9304 24.4795C15.6768 22.7549 14.5708 20.9413 13.6432 19.0896ZM12.4497 19.3574L12.5016 19.4621C13.412 21.3048 14.4935 23.1111 15.716 24.8312L15.8226 24.9806L15.6478 25.0368C14.0854 25.5397 12.5324 25.8877 11.0316 26.0713L10.9679 26.0791L10.9217 26.0345C8.74203 23.9235 7.59801 21.8463 7.10992 20.7958L7.03355 20.6313L7.21345 20.6062C8.88541 20.3753 10.6096 19.9675 12.3389 19.3942L12.4497 19.3574ZM16.6925 8.80131L16.803 8.71679C17.8809 7.89359 18.8423 6.97802 19.6603 5.99543L19.7388 5.90125L19.8399 5.97098C20.3476 6.32025 20.8436 6.69396 21.3142 7.08126C22.4808 8.07018 23.5138 9.19888 24.3858 10.4371L24.4495 10.5277L24.3731 10.6074C23.2418 11.7907 21.8958 12.9378 20.373 14.017L20.2507 14.1037L20.178 13.9726C19.9054 13.4827 19.6159 12.9898 19.3177 12.508C18.5906 11.286 17.7375 10.0761 16.7807 8.90878L16.6925 8.80131ZM11.1264 11.8276C11.8849 11.5532 12.6552 11.2217 13.4162 10.8426C14.0981 10.4999 14.7911 10.0942 15.5971 9.56595L15.6979 9.49984L15.7743 9.59312C16.2346 10.1531 16.6786 10.7269 17.0946 11.2996C17.851 12.3658 18.5589 13.493 19.1985 14.6515L19.2595 14.762L19.1532 14.83C18.1317 15.482 17.1812 16.0278 16.2479 16.4978C15.2874 16.9796 14.2578 17.4297 13.1871 17.8354L13.0691 17.88L13.0172 17.765C12.7956 17.2757 12.5807 16.7707 12.3775 16.2641C11.8511 14.8384 11.402 13.4006 11.0418 11.9869L11.0117 11.8689L11.1264 11.8276ZM9.98898 5.25525L9.98144 5.0539C9.96997 4.7632 9.96423 4.49273 9.96272 4.24519L9.96121 3.96898L10.1795 4.13833C10.3935 4.30406 10.6042 4.47099 10.8103 4.63883L10.9655 4.76501L10.7901 4.86071C10.6854 4.91806 10.5794 4.97451 10.4716 5.02855C10.3814 5.07383 10.2926 5.11488 10.2039 5.15593L9.98898 5.25525ZM10.2012 6.45277C10.4819 6.33896 10.7448 6.22093 11.0047 6.09203C11.2776 5.95227 11.5502 5.79831 11.8137 5.63561L11.8961 5.58459L11.9703 5.64677C12.0826 5.74096 12.2049 5.84601 12.332 5.95649C13.201 6.75373 14.0356 7.59957 14.8153 8.47318L14.92 8.59031L14.7881 8.67543C14.0881 9.12763 13.4817 9.47871 12.8795 9.78058C12.2598 10.0933 11.6063 10.3771 10.8822 10.6472L10.7364 10.7016L10.7038 10.5494C10.4876 9.54331 10.3168 8.54503 10.1951 7.58297C10.1592 7.21861 10.133 6.88353 10.1173 6.58408L10.1124 6.48869L10.2012 6.45277ZM21.8056 2.38024L21.9345 2.43669C24.0043 3.34411 25.8697 4.74418 27.3292 6.48537L27.3889 6.55631L27.3434 6.63721C26.8064 7.59685 26.1453 8.54865 25.3789 9.46603L25.2654 9.60248L25.1652 9.45577C24.1072 7.90868 22.5158 6.377 20.5632 5.02583L20.4539 4.95036L20.5281 4.84018C21.0407 4.08007 21.4536 3.29642 21.7549 2.51156L21.8056 2.38024ZM15.9696 0C13.4733 0 11.0696 0.570232 8.82565 1.69439C0.94278 5.64708 -2.25715 15.2788 1.69258 23.1652C3.61266 26.9844 6.90134 29.829 10.9525 31.1747C12.6003 31.7223 14.304 32 16.0161 32C18.5054 32.0003 20.9106 31.4265 23.1648 30.2953C26.9836 28.38 29.8282 25.0926 31.1742 21.0385C32.5231 16.9838 32.2116 12.6462 30.2973 8.82516C27.5667 3.38155 22.0766 0 15.9696 0Z" fill="#D9D9D9"/>
<path fill-rule="evenodd" clip-rule="evenodd" d="M30.5065 13.0827L30.4875 13.1232C29.955 14.2576 29.2245 15.4141 28.3165 16.5612L28.1348 16.7909L28.0793 16.5032C27.4964 13.4818 26.4052 11.4689 25.9633 10.7438L25.912 10.6599L25.9766 10.5857C26.7744 9.67009 27.4753 8.72041 28.0603 7.76288L28.1695 7.58387L28.2866 7.75805C28.6631 8.31862 28.9731 8.84086 29.2339 9.35494C29.805 10.4975 30.2303 11.7367 30.4974 13.039L30.5065 13.0827ZM30.7703 15.1031L30.7842 15.546C30.8394 17.302 30.5922 19.0238 30.0495 20.6639C29.6522 21.8542 29.0847 23.0179 28.3624 24.1227L28.0074 24.6658L28.1176 24.0264C28.4421 22.1403 28.5188 20.2585 28.3455 18.4325L28.3398 18.3739L28.379 18.3301C29.2004 17.4167 29.926 16.4573 30.5357 15.479L30.7703 15.1031ZM26.2787 26.6352L26.2685 26.6684L26.2431 26.6928C25.8664 27.0524 25.4646 27.395 25.0152 27.74L24.8359 27.8777L24.8006 27.6546C24.5198 25.8871 24.144 24.1562 23.6837 22.5098L23.6577 22.4174L23.7368 22.3631C24.9095 21.5565 26.0059 20.6763 26.9953 19.7471L27.213 19.5427L27.2217 19.841C27.2881 22.0984 26.9709 24.3844 26.2787 26.6352ZM23.6596 28.6535C23.3565 28.8367 23.0018 29.0477 22.6305 29.2313C22.2593 29.4199 21.881 29.5769 21.5602 29.7055L21.4781 29.7384L21.4156 29.6762C20.1125 28.3824 18.9135 27.0394 17.8513 25.684L17.7402 25.5424L17.9075 25.4763C18.6838 25.1687 19.4653 24.8194 20.2302 24.4382C20.8982 24.1034 21.6064 23.7064 22.4588 23.1893L22.6118 23.0967L22.6583 23.2693C23.1138 24.9616 23.4718 26.7281 23.7229 28.52L23.7353 28.6079L23.6596 28.6535ZM20.0319 30.2404C19.4629 30.3998 18.9413 30.5193 18.4378 30.606L18.4028 30.612L18.3696 30.6002C16.1546 29.8111 14.1349 28.6988 12.367 27.2935L12.1327 27.1076L12.4273 27.056C13.7486 26.8253 15.1144 26.4722 16.4873 26.0067L16.5784 25.9759L16.637 26.0523C17.6729 27.3998 18.8354 28.7338 20.0917 30.0173L20.2507 30.1794L20.0319 30.2404ZM15.1099 30.7666C13.7971 30.6875 12.5248 30.4463 11.3286 30.0502C9.69468 29.5041 8.17274 28.6773 6.80414 27.5927L6.45762 27.3177L6.89862 27.3533C8.04113 27.4457 9.24703 27.4339 10.4632 27.318L10.5224 27.3126L10.5661 27.3524C11.9175 28.5777 13.4693 29.6412 15.179 30.513L15.7528 30.8055L15.1099 30.7666ZM4.98609 25.8865L4.9562 25.853C4.06484 24.8493 3.3253 23.7656 2.75751 22.6318C2.50305 22.1286 2.27787 21.5882 2.04967 20.9319L1.98085 20.7342L2.18913 20.7541C3.26463 20.8559 4.44577 20.8601 5.69333 20.765L5.79113 20.7578L5.82795 20.8486C6.15094 21.6435 7.12441 23.7366 9.18998 25.9973L9.38739 26.2132L9.0949 26.2222C8.89477 26.2283 8.69555 26.2313 8.49753 26.2313C7.29677 26.2313 6.13011 26.1184 5.03016 25.8956L4.98609 25.8865ZM1.61953 19.4839L1.5981 19.3936C1.07529 17.1891 1.06775 14.8616 1.57576 12.6631L1.60776 12.5261L1.74299 12.5641C2.53565 12.7857 3.41253 12.9212 4.34888 12.9674L4.48109 12.9738L4.47656 13.1063C4.4334 14.3452 4.49226 15.5578 4.65103 16.7106C4.68544 17.004 4.71684 17.2177 4.73465 17.3312L4.76423 17.4236C4.89734 18.1593 5.06849 18.8352 5.27285 19.4335L5.3305 19.6016L5.15301 19.6113C4.77268 19.6318 4.39325 19.6421 4.02529 19.6421C3.22357 19.6421 2.4451 19.5929 1.7113 19.496L1.61953 19.4839ZM1.98085 11.2471C2.57972 9.4772 3.49041 7.85857 4.68816 6.43677L4.78143 6.32598L4.88497 6.42771C5.05008 6.58951 5.25594 6.72807 5.49712 6.83856L5.60971 6.89018L5.56746 7.0067C5.29428 7.76137 5.06336 8.62019 4.88104 9.55901L4.85961 9.66828C4.83637 9.78994 4.81494 9.9131 4.79381 10.0369L4.75849 10.247C4.73344 10.4036 4.7102 10.5612 4.68816 10.7203C4.64017 11.0659 4.60334 11.3702 4.57527 11.6528L4.56289 11.779L4.43611 11.7738C3.59365 11.7394 2.79826 11.6205 2.07231 11.4194L1.93527 11.3817L1.98085 11.2471ZM5.7051 5.34913C5.93119 5.12967 6.17056 4.91293 6.43649 4.68743L7.07883 4.14256L6.63782 4.8604C6.47633 5.12303 6.31997 5.40317 6.17297 5.69296L6.1129 5.8116L5.99367 5.75303C5.86629 5.68994 5.76607 5.61568 5.69574 5.53176L5.61545 5.43607L5.7051 5.34913ZM7.28711 5.75726C7.8069 4.46012 8.30073 3.57353 8.48878 3.25265L8.50689 3.22186L8.80331 3.0513L8.8021 3.28525C8.79757 4.04898 8.81538 4.81512 8.85462 5.56195L8.86006 5.66972L8.75622 5.69839C8.28382 5.83031 7.83467 5.91212 7.42143 5.9414L7.20742 5.95649L7.28711 5.75726ZM8.95454 7.04111C9.0143 7.8797 9.16161 9.24174 9.52413 10.9666L9.55009 11.0892L9.42965 11.1236C8.24971 11.4623 7.07581 11.6736 5.94085 11.7518L5.77966 11.7627L5.79837 11.6021C5.96801 10.1386 6.28737 8.67453 6.7474 7.25061L6.77849 7.15371L6.88745 7.13831C7.4655 7.16095 8.10845 7.0873 8.78852 6.92036L8.94337 6.88233L8.95454 7.04111ZM9.813 12.2583L9.84621 12.3936C10.4726 14.938 11.1565 16.4054 11.1852 16.4667C11.4122 17.0433 11.6471 17.6029 11.887 18.1384L11.9483 18.2749L11.8058 18.3211C10.0708 18.8847 8.33966 19.2732 6.66046 19.4763L6.55662 19.4887L6.51889 19.3912C6.10837 18.3289 5.83973 17.0647 5.71989 15.6332L5.71295 15.5487C5.69816 15.3618 5.6885 15.1726 5.67914 14.9836L5.67401 14.8786C5.67008 14.8019 5.66616 14.7255 5.66375 14.6494L5.66043 14.4617C5.65107 14.0019 5.6568 13.5407 5.67733 13.0897L5.68276 12.9677L5.80441 12.9617C7.04713 12.8974 8.35053 12.6734 9.67898 12.2964L9.813 12.2583ZM10.2549 2.34704L10.2896 2.35066C10.6564 2.389 11.6546 2.51608 13.0018 2.86505L13.2088 2.91878L13.0703 3.08209C12.8001 3.40056 12.463 3.71813 12.0681 4.02573L11.9833 4.09184L11.9003 4.02302C10.9899 3.27106 10.3352 2.80467 10.0961 2.63925L9.89752 2.5019L10.2549 2.34704ZM12.7983 1.53682C13.0959 1.47101 13.3441 1.42241 13.5795 1.38377L13.703 1.36355L13.7319 1.4852C13.7555 1.583 13.7582 1.69621 13.7404 1.82148L13.7205 1.96185L13.5813 1.93438C13.3287 1.88427 13.0682 1.83959 12.8074 1.80095L12.0844 1.69409L12.7983 1.53682ZM14.3227 3.39181L14.377 3.31242L14.47 3.33838C15.7353 3.69277 17.1586 4.3261 18.5854 5.16982L18.7237 5.25133L18.6192 5.37298C17.8691 6.24689 16.9941 7.06737 16.0188 7.81239L15.9192 7.88846L15.8365 7.79428C14.9209 6.75283 13.9734 5.80616 13.0208 4.98055L12.9016 4.87701L13.0226 4.77588C13.5702 4.31825 14.0075 3.85246 14.3227 3.39181ZM14.904 2.09467C14.9566 1.83507 14.9653 1.59236 14.9303 1.37351L14.9071 1.2277L15.0547 1.21835C16.8993 1.10303 18.768 1.34 20.5589 1.91808L20.6948 1.96185L20.6425 2.09498C20.3654 2.80226 19.9896 3.50742 19.5257 4.19086L19.4539 4.29712L19.3443 4.2298C18.5519 3.74288 17.7282 3.31604 16.896 2.96164C16.228 2.66611 15.5895 2.42673 14.9973 2.25014L14.8799 2.21482L14.904 2.09467ZM20.8668 15.2668L20.814 15.1626L20.9097 15.0959C22.3803 14.0674 23.7365 12.9276 24.9409 11.7083L25.0686 11.5791L25.1549 11.7391C25.7046 12.7609 26.685 14.922 27.0735 17.9102L27.082 17.9739L27.0376 18.0204C25.9506 19.1551 24.7429 20.1981 23.4486 21.1209L23.2988 21.2275L23.2427 21.0527C22.5986 19.0534 21.7992 17.1067 20.8668 15.2668ZM13.6432 19.0896L13.5768 18.9568L13.7153 18.9037C14.7821 18.4962 15.8132 18.0446 16.7804 17.5613C17.7116 17.0934 18.663 16.5479 19.6887 15.894L19.8143 15.814L19.881 15.9469C20.8164 17.8112 21.6082 19.7818 22.2336 21.8037L22.2638 21.9022L22.1769 21.9571C21.2514 22.5406 20.4623 22.9916 19.6935 23.3774C18.8414 23.8027 17.9648 24.1888 17.087 24.526L16.991 24.5628L16.9304 24.4795C15.6768 22.7549 14.5708 20.9413 13.6432 19.0896ZM12.4497 19.3574L12.5016 19.4621C13.412 21.3048 14.4935 23.1111 15.716 24.8312L15.8226 24.9806L15.6478 25.0368C14.0854 25.5397 12.5324 25.8877 11.0316 26.0713L10.9679 26.0791L10.9217 26.0345C8.74203 23.9235 7.59801 21.8463 7.10992 20.7958L7.03355 20.6313L7.21345 20.6062C8.88541 20.3753 10.6096 19.9675 12.3389 19.3942L12.4497 19.3574ZM16.6925 8.80131L16.803 8.71679C17.8809 7.89359 18.8423 6.97802 19.6603 5.99543L19.7388 5.90125L19.8399 5.97098C20.3476 6.32025 20.8436 6.69396 21.3142 7.08126C22.4808 8.07018 23.5138 9.19888 24.3858 10.4371L24.4495 10.5277L24.3731 10.6074C23.2418 11.7907 21.8958 12.9378 20.373 14.017L20.2507 14.1037L20.178 13.9726C19.9054 13.4827 19.6159 12.9898 19.3177 12.508C18.5906 11.286 17.7375 10.0761 16.7807 8.90878L16.6925 8.80131ZM11.1264 11.8276C11.8849 11.5532 12.6552 11.2217 13.4162 10.8426C14.0981 10.4999 14.7911 10.0942 15.5971 9.56595L15.6979 9.49984L15.7743 9.59312C16.2346 10.1531 16.6786 10.7269 17.0946 11.2996C17.851 12.3658 18.5589 13.493 19.1985 14.6515L19.2595 14.762L19.1532 14.83C18.1317 15.482 17.1812 16.0278 16.2479 16.4978C15.2874 16.9796 14.2578 17.4297 13.1871 17.8354L13.0691 17.88L13.0172 17.765C12.7956 17.2757 12.5807 16.7707 12.3775 16.2641C11.8511 14.8384 11.402 13.4006 11.0418 11.9869L11.0117 11.8689L11.1264 11.8276ZM9.98898 5.25525L9.98144 5.0539C9.96997 4.7632 9.96423 4.49273 9.96272 4.24519L9.96121 3.96898L10.1795 4.13833C10.3935 4.30406 10.6042 4.47099 10.8103 4.63883L10.9655 4.76501L10.7901 4.86071C10.6854 4.91806 10.5794 4.97451 10.4716 5.02855C10.3814 5.07383 10.2926 5.11488 10.2039 5.15593L9.98898 5.25525ZM10.2012 6.45277C10.4819 6.33896 10.7448 6.22093 11.0047 6.09203C11.2776 5.95227 11.5502 5.79831 11.8137 5.63561L11.8961 5.58459L11.9703 5.64677C12.0826 5.74096 12.2049 5.84601 12.332 5.95649C13.201 6.75373 14.0356 7.59957 14.8153 8.47318L14.92 8.59031L14.7881 8.67543C14.0881 9.12763 13.4817 9.47871 12.8795 9.78058C12.2598 10.0933 11.6063 10.3771 10.8822 10.6472L10.7364 10.7016L10.7038 10.5494C10.4876 9.54331 10.3168 8.54503 10.1951 7.58297C10.1592 7.21861 10.133 6.88353 10.1173 6.58408L10.1124 6.48869L10.2012 6.45277ZM21.8056 2.38024L21.9345 2.43669C24.0043 3.34411 25.8697 4.74418 27.3292 6.48537L27.3889 6.55631L27.3434 6.63721C26.8064 7.59685 26.1453 8.54865 25.3789 9.46603L25.2654 9.60248L25.1652 9.45577C24.1072 7.90868 22.5158 6.377 20.5632 5.02583L20.4539 4.95036L20.5281 4.84018C21.0407 4.08007 21.4536 3.29642 21.7549 2.51156L21.8056 2.38024ZM15.9696 0C13.4733 0 11.0696 0.570232 8.82565 1.69439C0.94278 5.64708 -2.25715 15.2788 1.69258 23.1652C3.61266 26.9844 6.90134 29.829 10.9525 31.1747C12.6003 31.7223 14.304 32 16.0161 32C18.5054 32.0003 20.9106 31.4265 23.1648 30.2953C26.9836 28.38 29.8282 25.0926 31.1742 21.0385C32.5231 16.9838 32.2116 12.6462 30.2973 8.82516C27.5667 3.38155 22.0766 0 15.9696 0Z" fill="#05968F"/>
</g>
<defs>
<clipPath id="clip0_10177_4007">
<rect width="32" height="32" fill="white"/>
</clipPath>
</defs>
</svg>
