<svg width="24" height="24" viewBox="0 0 24 24" fill="none" xmlns="http://www.w3.org/2000/svg">
<path d="M4.40723 2C3.80147 1.99086 3.1332 2.17586 2.64062 2.75098C2.17419 3.29558 2.00005 4.03684 2 4.85352C2 5.18357 2.08396 6.39799 2.18457 7.5625C2.23592 8.1568 2.29363 8.75989 2.35059 9.25977C2.40338 9.72309 2.46456 10.1909 2.53613 10.4492C2.92191 11.841 3.80893 12.7664 4.89551 13.2881C4.64339 13.5368 4.4344 13.8135 4.27734 14.1211C3.56314 15.5201 4.13539 17.0112 5.28027 18.1973C6.31093 19.265 7.33182 19.8768 8.3584 19.9834C9.42626 20.0941 10.2789 19.6376 10.8955 19.0518C11.3601 18.6103 11.7218 18.0689 12 17.5566C12.2781 18.0687 12.6391 18.6104 13.1035 19.0518C13.72 19.6376 14.5728 20.0939 15.6406 19.9834C16.6674 19.877 17.6889 19.2652 18.7197 18.1973C19.8646 17.0112 20.4368 15.5201 19.7227 14.1211C19.5657 13.8137 19.3574 13.5367 19.1055 13.2881C20.1917 12.7664 21.0782 11.8407 21.4639 10.4492C21.5354 10.1909 21.5966 9.7231 21.6494 9.25977C21.7064 8.7599 21.7641 8.15679 21.8154 7.5625C21.916 6.398 22 5.18354 22 4.85352C22 4.03684 21.8258 3.29558 21.3594 2.75098C20.8667 2.17572 20.1977 1.99075 19.5918 2C18.6027 2.01526 17.5555 2.53837 16.7764 3.07715H16.7617L16.4941 3.28027L16.0693 3.62012C15.0793 4.45491 14.1079 5.55743 13.2852 6.6377C12.8117 7.25928 12.3744 7.89099 12 8.4834C11.6256 7.89099 11.1883 7.2593 10.7148 6.6377C9.77473 5.40331 8.64033 4.14012 7.50586 3.28027C6.71046 2.67743 5.52127 2.017 4.40723 2ZM12.1152 15.2539C12.1708 15.4185 12.248 15.6457 12.3477 15.9072C12.2941 15.9277 12.2356 15.9463 12.1709 15.958C12.1683 15.9584 12.1657 15.9595 12.1631 15.96C12.1291 15.9658 12.0944 15.9664 12.0596 15.9688C11.9844 15.9727 11.9101 15.9724 11.8379 15.96C11.8352 15.9595 11.8327 15.9584 11.8301 15.958C11.7654 15.9464 11.7069 15.9276 11.6533 15.9072C11.7363 15.6896 11.8023 15.4955 11.8545 15.3418L11.8848 15.2539C11.9228 15.1411 11.9518 15.0579 11.9707 15.0127H12.0293C12.0482 15.0579 12.0772 15.1411 12.1152 15.2539Z" stroke="currentColor" stroke-width="2"/>
</svg>
