<svg width="24" height="24" viewBox="0 0 24 24" fill="none" xmlns="http://www.w3.org/2000/svg">
<path d="M13.9014 2.00293V2.00195H16.2559C16.9682 2.00219 17.5456 2.5797 17.5459 3.29199V6.03711C17.5459 6.74943 16.9684 7.32789 16.2559 7.32812H14.6426V8.05371H16.2559C16.5778 8.05382 16.8863 8.17404 17.1221 8.3877L17.2188 8.48535L17.3047 8.59277C17.4904 8.85202 17.5738 9.17289 17.5371 9.49219L17.1924 12.4824C17.1174 13.1333 16.5666 13.6249 15.9111 13.625H14.6426V20.71C14.6424 21.4224 14.065 21.9999 13.3525 22H10.0068C9.29428 22 8.71695 21.4225 8.7168 20.71V13.5869H7.74316C7.03053 13.5868 6.45337 13.009 6.45312 12.2969V9.34375C6.45336 8.63139 7.03078 8.05386 7.74316 8.05371H8.81445V6.9209C8.74493 6.38389 8.6781 4.7451 10.166 3.37598C11.5677 2.08647 13.3043 2.00005 13.793 2C13.8354 2 13.872 2.00207 13.9014 2.00293Z" stroke="currentColor" stroke-width="2" stroke-linejoin="round"/>
</svg>
