<svg width="28" height="28" viewBox="0 0 24 28" fill="none" xmlns="http://www.w3.org/2000/svg">
<path d="M14.5361 1.00293H17.6738C18.4398 1.00293 19.0604 1.62368 19.0605 2.38965V6.0498C19.0605 6.76794 18.5151 7.35877 17.8154 7.42969L17.6738 7.43652H15.3965C15.2976 7.43652 15.235 7.44752 15.1982 7.45605C15.1941 7.48197 15.1904 7.51989 15.1904 7.57227V9.07227H17.6738C18.0202 9.07227 18.3518 9.2016 18.6055 9.43164L18.709 9.53613L18.8018 9.65137C19.0012 9.92991 19.0911 10.2741 19.0518 10.6172V10.6182L18.5928 14.6045C18.5123 15.3044 17.9195 15.8328 17.2148 15.833H15.1904V25.6133C15.1902 26.3792 14.5687 27 13.8027 27H9.34277C8.57678 27 7.95528 26.3792 7.95508 25.6133V15.7822H6.32422C5.55811 15.782 4.93765 15.1611 4.9375 14.3955V10.459L4.94434 10.3174C5.0152 9.61787 5.60604 9.07246 6.32422 9.07227H8.08594V7.20605C7.99953 6.57041 7.88891 4.48821 9.78125 2.74707C11.5572 1.11329 13.7673 1 14.3916 1C14.4502 1 14.4988 1.00173 14.5361 1.00293Z" stroke="currentColor" stroke-width="2" stroke-linejoin="round"/>
</svg>
