<svg width="24" height="24" viewBox="0 0 24 24" fill="none" xmlns="http://www.w3.org/2000/svg">
<path d="M16.0586 3V4.2959C16.1197 4.89779 16.3643 5.4637 16.7568 5.91309C17.1547 6.36846 17.6827 6.68052 18.2627 6.80762H18.2637C18.4565 6.84896 18.6537 6.87036 18.8506 6.87012L19.8516 6.86816V11.6338L18.8535 11.6348C17.8901 11.6365 16.9422 11.4488 16.0586 11.0908V15.0469C16.0584 16.2582 15.7036 17.4434 15.0371 18.4512C14.3704 19.4593 13.4213 20.2455 12.3096 20.7061C11.1977 21.1667 9.97444 21.2799 8.79785 21.0312C7.62156 20.7825 6.54729 20.1835 5.71094 19.3135C4.83407 18.4008 4.26118 17.2344 4.07031 15.9785C3.87952 14.7225 4.07969 13.4362 4.64355 12.2998C5.20753 11.1633 6.10836 10.231 7.22266 9.63672C8.33718 9.04242 9.60858 8.81666 10.8574 8.99219L11.3213 9.05664V3H16.0586ZM10.4102 13.7617C10.1499 13.6775 9.87031 13.6792 9.61133 13.7676C9.35199 13.8562 9.1233 14.0282 8.96191 14.2607C8.80055 14.4934 8.71478 14.7743 8.71973 15.0625C8.7247 15.3505 8.8195 15.6282 8.98828 15.8545C9.15479 16.0771 9.38447 16.2388 9.6416 16.3193C9.89851 16.3997 10.1737 16.3964 10.4287 16.3096C10.684 16.2226 10.9091 16.055 11.0703 15.8281C11.231 15.602 11.3195 15.3284 11.3213 15.0459V14.0557L10.4102 13.7617Z" stroke="currentColor" stroke-width="2"/>
</svg>
